<?xml version="1.0" encoding="UTF-8"?>
<svg version="1.1" xmlns="http://www.w3.org/2000/svg" width="1026" height="1026">
<path d="M0 0 C56.83797638 -1.45180016 115.78682967 10.31820404 164.73925781 40.06640625 C165.45629883 40.49953125 166.17333984 40.93265625 166.91210938 41.37890625 C170.72468803 43.68578667 174.52569792 46.01051243 178.31738281 48.3515625 C181.20926358 50.13455045 184.11353728 51.89281769 187.03613281 53.625 C187.71409912 54.0271875 188.39206543 54.429375 189.09057617 54.84375 C190.35259851 55.5903117 191.61630614 56.33403562 192.88208008 57.07421875 C202.26119291 62.63221154 202.26119291 62.63221154 203.73925781 67.06640625 C204.83238281 67.56140625 205.92550781 68.05640625 207.05175781 68.56640625 C212.38165238 71.06568186 216.26143113 75.01990087 220.48535156 79.02734375 C223.14536622 81.54515889 225.89705187 83.91646271 228.71069336 86.26000977 C240.65745908 96.22499589 252.05135561 107.14866563 261.64941406 119.41796875 C263.58627025 121.87252668 265.60545902 124.23373438 267.66064453 126.58935547 C277.49132675 137.91068518 285.84056812 150.34336717 293.73925781 163.06640625 C294.39925781 164.05640625 295.05925781 165.04640625 295.73925781 166.06640625 C295.86425781 169.25390625 295.86425781 169.25390625 295.73925781 172.06640625 C289.82918882 174.41424188 283.84609929 176.251139 277.73999023 178.02197266 C260.03091241 183.16269606 242.54617549 188.94742027 225.59472656 196.25390625 C224.44194214 196.74866455 224.44194214 196.74866455 223.26586914 197.25341797 C221.90280024 197.84764363 220.54610682 198.45690549 219.19897461 199.08642578 C214.51965272 201.15393045 209.79387221 202.00909306 204.73925781 201.06640625 C199.72623446 197.29537352 196.85060592 191.08534745 193.59863281 185.84765625 C189.96611896 180.41414814 185.48612667 175.72727926 180.80175781 171.19140625 C178.73925781 169.06640625 178.73925781 169.06640625 177.73925781 166.06640625 C176.89363281 165.57140625 176.04800781 165.07640625 175.17675781 164.56640625 C173.97019531 163.82390625 173.97019531 163.82390625 172.73925781 163.06640625 C172.73925781 162.07640625 172.73925781 161.08640625 172.73925781 160.06640625 C171.91425781 159.86015625 171.08925781 159.65390625 170.23925781 159.44140625 C165.7621298 157.68253453 162.47539018 155.03867349 158.73925781 152.06640625 C158.01996094 151.59074219 157.30066406 151.11507812 156.55957031 150.625 C154.73925781 149.06640625 154.73925781 149.06640625 154.31347656 147.046875 C153.90922476 144.82744393 153.90922476 144.82744393 151.50878906 143.6796875 C150.04505859 143.03580078 150.04505859 143.03580078 148.55175781 142.37890625 C143.90269912 140.19591733 139.68766322 137.80792777 135.42675781 134.94140625 C109.72328263 117.91578812 80.83052465 106.93407556 50.86425781 100.25390625 C49.99897461 100.05901611 49.13369141 99.86412598 48.2421875 99.66333008 C33.0062488 96.44209034 17.82808428 95.65811857 2.30175781 95.69140625 C1.38472076 95.69161774 0.46768372 95.69182922 -0.47714233 95.69204712 C-15.75224092 95.72705397 -30.28837285 96.85276013 -45.26074219 100.06640625 C-46.16405273 100.2483252 -47.06736328 100.43024414 -47.99804688 100.61767578 C-111.24907788 113.453712 -165.30535751 154.14996324 -201.26074219 207.06640625 C-230.48443287 251.78983385 -236.46902616 301.075599 -240.26074219 353.06640625 C-259.17889033 349.3260909 -273.94056764 333.91100862 -288.3918457 321.8503418 C-292.94241263 318.07558089 -297.58797019 314.59002211 -302.57324219 311.3984375 C-304.26074219 310.06640625 -304.26074219 310.06640625 -305.26074219 307.06640625 C-307.50777465 305.53474343 -309.71841906 304.16119777 -312.07324219 302.81640625 C-313.08016113 302.22424316 -313.08016113 302.22424316 -314.10742188 301.62011719 C-317.32118336 299.73566358 -320.55622755 297.89518606 -323.81933594 296.09765625 C-324.8725 295.50984375 -325.92566406 294.92203125 -327.01074219 294.31640625 C-327.95433594 293.8059375 -328.89792969 293.29546875 -329.87011719 292.76953125 C-333.43271753 290.23146957 -334.94555894 287.7156209 -335.76464844 283.4296875 C-336.8475806 227.04501935 -298.11082047 164.78531883 -261.53027344 124.6171875 C-256.86828811 119.37746905 -252.4277929 113.92445993 -248.19042969 108.3359375 C-246.26074219 106.06640625 -246.26074219 106.06640625 -243.19824219 104.56640625 C-240.16263777 103.35343073 -240.16263777 103.35343073 -239.01464844 100.89453125 C-236.63821481 97.06259818 -233.57618319 94.34030288 -230.26074219 91.31640625 C-229.58720703 90.69660889 -228.91367187 90.07681152 -228.21972656 89.43823242 C-165.44423859 32.07571172 -84.40870541 2.47939178 0 0 Z " fill="#F8F8F8" transform="translate(554.2607421875,76.93359375)"/>
<path d="M0 0 C-3.82527845 9.11852432 -16.02418529 12.33699705 -24.4375 15.875 C-25.62021484 16.35324219 -26.80292969 16.83148438 -28.02148438 17.32421875 C-34.01615872 19.64698498 -34.01615872 19.64698498 -38.22705078 24.16503906 C-38.90994123 26.58799682 -38.90994123 26.58799682 -39 30 C-37.00531118 30.68239354 -35.00342734 31.34370484 -33 32 C-31.87464844 32.39638672 -31.87464844 32.39638672 -30.7265625 32.80078125 C-18.17600677 36.97770122 -8.72856742 34.33373934 3 29 C4.86703934 28.05097336 6.71079277 27.06623003 8.55395508 26.07177734 C15.09633596 22.54944595 20.54539454 20.39164334 28 22 C31.22061851 23.77462653 32.48459119 25.15660376 34.375 28.25 C35.71226315 34.13395785 34.60261535 38.50712405 31.5625 43.5625 C25.38860636 51.92838729 15.76729946 56.46246851 6.5625 60.8125 C5.47759277 61.32675537 4.39268555 61.84101074 3.27490234 62.37084961 C-21.89902177 74.07305892 -48.68493621 81.97897412 -75.25 89.86328125 C-87.18372435 93.40875528 -98.91645566 97.38920966 -110.62695312 101.60595703 C-119.8698617 104.9274445 -129.16093696 108.06947302 -138.49209595 111.13354492 C-153.47196367 116.05266404 -168.28581901 121.32444016 -183.03417969 126.89990234 C-183.74213684 127.16707565 -184.45009399 127.43424896 -185.17950439 127.70951843 C-187.08884357 128.43135676 -188.99662882 129.15730166 -190.90429688 129.88354492 C-195.47264146 131.53110326 -199.07132539 132.13727282 -203.9375 132.125 C-204.95714844 132.12757813 -205.97679687 132.13015625 -207.02734375 132.1328125 C-209.80685338 132.00862942 -212.28589003 131.57625349 -215 131 C-224.12710873 130.04990848 -231.12236031 132.72261504 -239.3046875 136.54296875 C-247.50143381 140.35465658 -255.66865354 143.17580358 -264.375 145.625 C-275.23464829 148.69361201 -285.68443845 152.39770146 -296.1875 156.5 C-337.63861797 172.66158882 -337.63861797 172.66158882 -356.125 174.6953125 C-357.24205322 174.8193042 -358.35910645 174.9432959 -359.51000977 175.07104492 C-361.75340473 175.31090074 -363.99877209 175.53312491 -366.24584961 175.7355957 C-372.1080215 176.33546061 -376.52251068 176.82339796 -381 181 C-382.82924925 183.84547959 -382.82924925 183.84547959 -384.125 187 C-386.87105039 193.2057636 -389.20220194 196.46406254 -395.61547852 198.94775391 C-397.53250956 199.63559201 -399.45400148 200.31107702 -401.37890625 200.9765625 C-402.9244519 201.52648865 -402.9244519 201.52648865 -404.5012207 202.08752441 C-407.85136331 203.27719717 -411.20678247 204.45115517 -414.5625 205.625 C-418.03609882 206.85310809 -421.50841201 208.08480458 -424.98069763 209.31661987 C-427.257035 210.12376209 -429.53385762 210.92953711 -431.81117249 211.73391724 C-438.46277084 214.08570885 -445.08045934 216.50016237 -451.67016602 219.02026367 C-492.59181632 234.65042047 -534.7496578 246.49596357 -577.296875 256.7578125 C-578.12713196 256.95984787 -578.95738892 257.16188324 -579.81280518 257.37004089 C-587.76755188 259.26520731 -595.79350262 260.53634522 -603.88427734 261.69140625 C-608.0109569 262.29331289 -612.12313928 262.99218442 -616.23828125 263.66796875 C-619.18338899 264.02204818 -622.03651181 264.05690598 -625 264 C-624.01 261.69 -623.02 259.38 -622 257 C-620.68 257 -619.36 257 -618 257 C-617.34 255.02 -616.68 253.04 -616 251 C-614.68 251 -613.36 251 -612 251 C-611.773125 250.175 -611.54625 249.35 -611.3125 248.5 C-610.20775477 245.55401272 -609.27980624 243.91032814 -607.5 241.4375 C-604.00035754 236.14158087 -603.6323114 230.19098924 -603 224 C-603.99 224 -604.98 224 -606 224 C-606.33 223.01 -606.66 222.02 -607 221 C-611.33657365 218.42515939 -616.12627277 218.05106557 -621 219 C-632.84640295 224.27507001 -641.99391919 234.96057918 -651 244.01953125 C-651.8099794 244.83333252 -651.8099794 244.83333252 -652.63632202 245.66357422 C-655.3675934 248.40947391 -658.09175652 251.16178385 -660.80322266 253.92724609 C-667.20144216 260.41951938 -673.80197657 266.38261381 -681 272 C-681.63260742 272.50136475 -682.26521484 273.00272949 -682.91699219 273.51928711 C-720.37586568 303.0661102 -720.37586568 303.0661102 -738 302 C-739.34877857 296.63982818 -738.95134065 293.89327843 -736.24365234 289.10205078 C-735.81262207 288.38774902 -735.3815918 287.67344727 -734.9375 286.9375 C-734.27161865 285.78870361 -734.27161865 285.78870361 -733.59228516 284.61669922 C-728.17689313 275.38671465 -722.38902964 266.37695259 -716.55664062 257.40673828 C-715.22203558 255.34329152 -713.90956522 253.26879374 -712.609375 251.18359375 C-711.62710938 249.63865234 -711.62710938 249.63865234 -710.625 248.0625 C-710.10164063 247.22847656 -709.57828125 246.39445313 -709.0390625 245.53515625 C-702.95644363 237.9726665 -696.54344476 234.59757473 -687.4375 231.5625 C-669.68784137 225.35990671 -669.68784137 225.35990671 -655 214 C-654.34 213.34 -653.68 212.68 -653 212 C-651.71431528 208.4744746 -651.90034446 204.96555437 -651.9375 201.25 C-651.94652344 200.07953125 -651.95554687 198.9090625 -651.96484375 197.703125 C-651.97644531 196.81109375 -651.98804688 195.9190625 -652 195 C-669.28860415 198.77624495 -669.28860415 198.77624495 -686.0625 204.3125 C-690.10808668 205.82285236 -692.82673554 206.68917847 -697 205 C-706.14108452 197.78335433 -712.28864386 185.62977068 -718.65405273 176.03735352 C-725.74397299 165.35387326 -733.01757286 154.8080595 -740.39794922 144.32348633 C-742.76604625 140.95302184 -745.12108136 137.57360384 -747.47167969 134.19091797 C-748.40902762 132.84718628 -749.35126648 131.5068303 -750.30175781 130.17236328 C-751.34300433 128.71008326 -752.36036741 127.23087065 -753.375 125.75 C-754.16003906 124.62851562 -754.16003906 124.62851562 -754.9609375 123.484375 C-756.46471733 119.88887135 -756.17190289 116.88009382 -756 113 C-744.82412331 108.43905765 -733.62577066 104.05716117 -722.2109375 100.12890625 C-719.15579844 99.13008042 -719.15579844 99.13008042 -717 98 C-712.5014392 97.16084539 -708.61010981 97.07178855 -704.57421875 99.3984375 C-701.94936107 101.50347885 -699.47614277 103.72180469 -697 106 C-694.91189555 107.81073548 -692.79950132 109.59224365 -690.6875 111.375 C-690.13698975 111.84421875 -689.58647949 112.3134375 -689.01928711 112.796875 C-684.83331703 116.35059869 -680.52312021 119.71134438 -676.14599609 123.02783203 C-671.60492714 126.48839804 -667.2044164 130.10278241 -662.8125 133.75 C-659.8797198 136.17244479 -656.94201403 138.58877838 -654 141 C-653.28183105 141.58861816 -652.56366211 142.17723633 -651.82373047 142.78369141 C-629.68570175 160.79977549 -602.08088276 180.80808747 -572 179 C-568.70405466 178.4868063 -565.48712444 177.73751395 -562.25 176.9375 C-560.86385498 176.59706665 -560.86385498 176.59706665 -559.44970703 176.24975586 C-543.1600057 172.11830987 -527.72926835 165.74300916 -512.17932129 159.4630127 C-497.28343817 153.44793605 -482.25943575 147.82883423 -467.18200684 142.28800964 C-461.52783541 140.20566529 -455.90041247 138.05724917 -450.27685547 135.89355469 C-425.59621022 126.41089945 -400.63015084 117.69543515 -375.43777466 109.67410278 C-363.33563824 105.81965577 -351.39092296 101.75396716 -339.5625 97.125 C-323.55277432 90.86525977 -307.38853233 85.0547815 -291.1875 79.3125 C-290.18851181 78.95826336 -290.18851181 78.95826336 -289.16934204 78.59687042 C-268.75230446 71.35962573 -248.27757338 64.30547216 -227.75131226 57.38336182 C-211.24231629 51.81545082 -194.81277355 46.06381655 -178.43313599 40.1269989 C-177.67016205 39.85047989 -176.90718811 39.57396088 -176.12109375 39.2890625 C-174.98690506 38.87784904 -174.98690506 38.87784904 -173.82980347 38.45832825 C-168.49366564 36.528153 -163.14410789 34.6392723 -157.78515625 32.7734375 C-157.02301315 32.50802155 -156.26087006 32.24260559 -155.47563171 31.96914673 C-153.93711078 31.43354297 -152.39857217 30.89798996 -150.86001587 30.36248779 C-135.12101855 24.88221847 -119.49503488 19.13557679 -103.92211914 13.19946289 C-89.64839375 7.77203745 -75.3415275 2.37543747 -60.375 -0.8125 C-59.47394531 -1.01552734 -58.57289063 -1.21855469 -57.64453125 -1.42773438 C-40.59981819 -5.18650298 -16.22510949 -8.11255474 0 0 Z M-108 48 C-109.8057213 52.64328335 -110.59595882 56.21212353 -109 61 C-106.57517911 63.55953316 -104.96827307 64.80634539 -101.5 65.5 C-97.4659102 64.69318204 -95.12077934 62.42644643 -92.625 59.25 C-91.63345573 55.68044064 -91.81980838 52.46509749 -93 49 C-95.29737253 45.96834068 -97.85725951 44.24487296 -101.625 43.4375 C-104.89896085 44.21291178 -105.99358775 45.30172145 -108 48 Z M-135 55 C-137.51250583 58.76875875 -137.53016086 60.53150134 -137 65 C-135.21847933 67.97361628 -133.14692775 70.42653612 -130 72 C-126.24774309 72.41691743 -124.45988878 72.27593327 -121.1875 70.3125 C-118.6288405 67.60763139 -118 66.71027547 -118 63 C-118.91656767 58.77484661 -119.94357297 55.12458361 -122.9375 51.9375 C-128.05197436 49.61273893 -130.94625496 51.91562878 -135 55 Z M-163 67 C-163 68.32 -163 69.64 -163 71 C-164.65 71 -166.3 71 -168 71 C-168.33 73.31 -168.66 75.62 -169 78 C-159.65750908 80.94638499 -159.65750908 80.94638499 -150 81 C-146.75 79.25 -146.75 79.25 -145 76 C-144.5389913 71.44753906 -145.49677014 67.94839473 -147.625 63.9375 C-149.94097079 61.73140199 -149.94097079 61.73140199 -153.375 61.375 C-158.14504131 62.19742092 -159.71783287 63.4776743 -163 67 Z M-195.015625 73.671875 C-198.68900586 76.13043699 -200.29432096 80.02455908 -202 84 C-202.8360067 87.17368882 -202.8360067 87.17368882 -202 90 C-198.92496607 93.97945568 -195.99909009 96.16681832 -191 97 C-186.09659786 95.01528961 -183.51735039 91.31215297 -180.6875 87 C-179.74453066 84.25681647 -180.12786823 82.75410034 -181 80 C-182.93731232 78.14868654 -182.93731232 78.14868654 -185.375 76.75 C-186.16648437 76.24984375 -186.95796875 75.7496875 -187.7734375 75.234375 C-191.23043098 73.23179756 -191.23043098 73.23179756 -195.015625 73.671875 Z M-227 90 C-227.61875 90.66 -228.2375 91.32 -228.875 92 C-230.20903726 93.97187044 -230.20903726 93.97187044 -229.9375 96.4375 C-228.53310304 100.27618502 -226.47998954 102.96400732 -223.125 105.3125 C-220.22281584 106.25144193 -218.02854808 106.38662316 -215 106 C-212.13114052 103.72469765 -211.68177825 101.10046843 -211.125 97.625 C-210.76943956 93.30849627 -211.51432464 90.63973893 -214 87 C-219.91410453 83.05726365 -222.61046825 84.91738429 -227 90 Z M-254 97 C-255.54762151 101.64286453 -255.7474207 106.16291885 -255 111 C-253.25623633 113.79704374 -252.03454773 114.39684271 -249 116 C-245.37773217 116.18111339 -243.78507629 114.86617958 -240.6875 112.9375 C-237.64636761 110.16779732 -237.64636761 110.16779732 -237.4375 106.0625 C-237.7441527 102.20013623 -238.89226472 99.27869932 -241 96 C-245.73051099 92.846326 -249.89718906 92.89718906 -254 97 Z M-280 107 C-282.54132581 110.46544429 -282.51557399 113.80175463 -282 118 C-279.57146618 121.2856634 -277.87725186 122.70758271 -274 124 C-270.37396827 124 -268.83935889 123.20839025 -266 121 C-263.47327545 117.20991318 -263.55658755 115.50802658 -264 111 C-264.93545102 108.00761975 -266.06507983 105.47836997 -268 103 C-273.50925393 100.48490582 -276.05495409 102.96529395 -280 107 Z M-303.25 113.3125 C-306.30512533 116.29819066 -306.84035508 117.00221925 -307.5 121.125 C-306.88128665 125.92002843 -305.30369325 128.07572971 -302.0078125 131.51171875 C-299.91955178 133.33211539 -299.91955178 133.33211539 -296.3125 133.3125 C-292.39678767 131.76099134 -291.06657592 130.6562497 -289 127 C-287.57505108 123.6939514 -287.57505108 123.6939514 -288 120 C-290.42366018 116.01268808 -293.04395958 112.67107233 -297.5390625 111.12890625 C-300.32923243 110.72710908 -300.32923243 110.72710908 -303.25 113.3125 Z M-333 124 C-334.77665262 126.93533911 -335.01779354 128.5729551 -334.875 132 C-333.64983853 136.20055363 -331.68988994 138.85523584 -328.0625 141.3125 C-325.42557412 142.19147529 -323.75983207 142.48297061 -321 142 C-318.09379914 138.93234354 -316.16764819 136.47530406 -315.6875 132.25 C-316.14685213 127.47273782 -318.57814862 124.77731423 -321.5 121.125 C-325.77668871 117.91748347 -329.58025369 121.24933449 -333 124 Z M-357.375 131.3125 C-359.94950943 135.84493467 -359.76097315 140.97130114 -359 146 C-357.66177841 148.84074462 -357.66177841 148.84074462 -355 150 C-351.16834674 150.48766496 -348.74884622 150.31617952 -345.1875 148.8125 C-342.48582414 146.57396857 -341.61755175 145.47372857 -341 142 C-342.0761345 136.53057413 -344.48799333 132.3577724 -349 129 C-353.12875747 128.07313608 -354.32913076 128.34678521 -357.375 131.3125 Z M-384.58203125 141.2265625 C-386.62358382 143.77990924 -387.10167489 145.76053469 -386.8359375 149 C-385.99752421 152.63786104 -385.29817605 154.66869328 -382.75 157.5 C-379.43054475 159.31061196 -377.72764226 159.62127371 -374 159 C-371.30009338 157.20006226 -369.4581135 155.916227 -368 153 C-367.27548039 147.92836275 -368.70730558 144.81282503 -371.515625 140.7265625 C-373.05507759 138.7735133 -373.05507759 138.7735133 -375.875 137.125 C-380.07719094 136.95691236 -381.55544991 138.48727254 -384.58203125 141.2265625 Z M-412 151 C-413.24217258 154.72651773 -413.5341253 158.12942074 -413 162 C-411.357908 165.16689171 -409.95245035 167.26978807 -407.125 169.4375 C-403.97719452 170.27074263 -402.09352403 170.03117468 -399 169 C-396.09156229 165.86194879 -394.74352609 163.22923644 -394.5 159 C-394.72563322 154.79355218 -396.24852917 152.21004931 -399 149 C-404.07793002 145.39630773 -408.20465661 146.25582076 -412 151 Z M-435.66796875 158.35546875 C-439.77873148 163.07031768 -439.77873148 163.07031768 -441 169 C-439.31617051 172.63352679 -437.19543574 175.58183241 -434 178 C-430.59545505 179.01309334 -427.34621735 179.69482186 -424.0625 178 C-421.32543246 172.84787286 -421.76322946 167.44164494 -423.13671875 161.95703125 C-423.94833963 159.66825129 -423.94833963 159.66825129 -426.875 157.9375 C-431.49319605 156.47591964 -431.49319605 156.47591964 -435.66796875 158.35546875 Z M-464 171 C-465.9519101 174.20224397 -467.33893074 177.22580133 -466.6171875 181.00390625 C-465.26208238 184.42019758 -464.0765161 185.94898927 -461 188 C-456.65916265 188.56270114 -454.72289136 188.51859598 -451.125 185.9375 C-448.56824434 182.40316129 -448 180.35173775 -448 176 C-449.34616128 171.88233021 -450.34885113 170.39866257 -454.0625 168.125 C-458.95373429 166.25176134 -460.29665207 167.38697763 -464 171 Z M-489.375 178.625 C-491.43114398 181.63013351 -492 183.34182468 -492 187 C-490.61077786 190.84079061 -488.67110633 193.4321408 -485.5625 196.0625 C-483.0377033 197.23659805 -483.0377033 197.23659805 -480.4375 196.5 C-477.4372969 194.65372117 -475.8457758 193.00793094 -474 190 C-473.30583177 185.92176163 -473.8218238 184.31477795 -475.875 180.6875 C-477.72041271 177.96303329 -477.72041271 177.96303329 -480 177 C-484.98959748 176.52440179 -484.98959748 176.52440179 -489.375 178.625 Z M-516 189 C-517.74034499 192.48068998 -517.58371457 196.20257598 -517 200 C-514.78629585 203.03593711 -513.03920677 204.49443995 -509.6875 206.125 C-505.40261515 205.92570303 -502.41456465 203.44865803 -499 201 C-499.51222884 194.59713949 -501.5549235 191.05634562 -505.5 186.125 C-509.73194599 182.9510405 -512.84667356 186.10234868 -516 189 Z M-544 199 C-545.21260877 202.63782632 -545.39544552 205.17735999 -545 209 C-543.01216563 211.91963173 -541.5685303 213.61102978 -538.0625 214.48046875 C-534.12404068 214.75645927 -532.30183539 214.19711699 -528.9375 212 C-526.6783607 208.50197787 -526.48909408 206.92224834 -527.2890625 202.9375 C-528.48302897 199.68361335 -530.23540907 198.01061158 -533 196 C-537.30242686 195.1174509 -540.34336458 196.75615554 -544 199 Z " fill="#F9F9F9" transform="translate(902,285)"/>
<path d="M0 0 C4.8652996 4.39765528 9.27085149 9.3406219 13.640625 14.2265625 C16.14758467 17.02001954 18.75452963 19.68624282 21.4375 22.3125 C22.11167969 22.9725 22.78585937 23.6325 23.48046875 24.3125 C48.8891624 48.00876803 82.16160771 64.94305268 115.4375 74.3125 C116.26701172 74.54904297 117.09652344 74.78558594 117.95117188 75.02929688 C158.04652516 86.18922173 209.01226242 87.28103793 247.4375 69.3125 C248.9225 68.3225 248.9225 68.3225 250.4375 67.3125 C254.48689116 66.69479626 256.95471854 66.3689118 260.45703125 68.59765625 C262.55686008 70.41585123 264.50016534 72.32229461 266.4375 74.3125 C267.10910156 74.96089844 267.78070312 75.60929688 268.47265625 76.27734375 C271.71436534 79.4316079 274.77294749 82.66705634 277.6875 86.125 C284.86617614 94.44057055 293.51359873 101.43226601 301.92114258 108.45922852 C305.4074418 111.38941147 308.6731105 114.431235 311.8359375 117.703125 C314.87209886 120.75409691 318.17609326 123.50732029 321.4375 126.3125 C322.93861215 127.62372788 324.43864686 128.93619046 325.9375 130.25 C326.6078125 130.83652344 327.278125 131.42304687 327.96875 132.02734375 C328.4534375 132.45144531 328.938125 132.87554688 329.4375 133.3125 C325.46320954 142.95504079 313.55191664 148.40992806 304.46875 152.33984375 C294.390256 156.43117414 283.90142892 159.38875516 273.4375 162.3125 C272.43267578 162.59367676 271.42785156 162.87485352 270.39257812 163.16455078 C192.91662488 184.46400304 115.69509288 178.77644539 42.4375 146.3125 C41.48697754 145.89323242 40.53645508 145.47396484 39.55712891 145.04199219 C14.96794814 134.0958106 -7.1740283 119.54186777 -28.5625 103.3125 C-29.50464355 102.62099854 -29.50464355 102.62099854 -30.46582031 101.91552734 C-32.1328125 100.63671875 -32.1328125 100.63671875 -34.5625 98.3125 C-34.5625 96.9925 -34.5625 95.6725 -34.5625 94.3125 C-35.8309375 93.99345703 -35.8309375 93.99345703 -37.125 93.66796875 C-41.37707998 91.9912963 -44.17525822 89.63136197 -47.5625 86.625 C-48.15289062 86.12033203 -48.74328125 85.61566406 -49.3515625 85.09570312 C-59.61511414 76.15465759 -59.61511414 76.15465759 -61.5625 70.3125 C-62.97985042 69.36829758 -64.40078689 68.42888124 -65.84228516 67.52197266 C-69.0489136 65.26741158 -71.60159891 62.36935692 -74.25 59.5 C-75.10174805 58.61344727 -75.10174805 58.61344727 -75.97070312 57.70898438 C-78.6803348 54.7960509 -80.73936397 52.29756576 -82.14453125 48.55078125 C-83.79792089 44.77485835 -85.00594031 44.1775252 -88.5625 42.3125 C-94.09893888 36.69217568 -101.5625 27.6280966 -101.5625 19.3125 C-100.67651123 19.10496094 -99.79052246 18.89742187 -98.87768555 18.68359375 C-90.65644764 16.69824397 -82.54767462 14.4651612 -74.45703125 12 C-73.47781708 11.7023877 -72.49860291 11.40477539 -71.48971558 11.09814453 C-67.44035838 9.86463555 -63.39228665 8.6272787 -59.34838867 7.37597656 C-10.70345581 -7.64260966 -10.70345581 -7.64260966 0 0 Z " fill="#F3F3F3" transform="translate(377.5625,565.6875)"/>
<path d="M0 0 C3.41001505 1.83231475 6.06127294 4.07633969 8.8046875 6.76171875 C9.86661027 7.76753687 10.92910963 8.77274657 11.9921875 9.77734375 C12.50007812 10.26267578 13.00796875 10.74800781 13.53125 11.24804688 C18.79499913 16.23978662 24.42183945 20.85599267 29.9296875 25.57421875 C31.73354076 27.12027685 33.53730205 28.66644176 35.34082031 30.21289062 C36.66859102 31.35051347 37.99814134 32.48605883 39.328125 33.62109375 C43.38821933 37.11951495 47.18183246 40.8026525 50.9453125 44.6171875 C53.39819428 47.03626973 55.97384649 49.27865971 58.58300781 51.52636719 C68.18157945 59.90264881 77.23116104 68.76618235 86.1796875 77.82421875 C92.91377396 84.63967219 99.60296515 91.38716007 106.9296875 97.57421875 C108.53786807 99.00722685 110.14265794 100.44406074 111.7421875 101.88671875 C112.58136719 102.64339844 113.42054688 103.40007812 114.28515625 104.1796875 C117.89685552 107.44995582 121.49708811 110.73273562 125.09375 114.01953125 C126.60627907 115.38205743 128.12308832 116.74032398 129.66741943 118.06669617 C134.73232923 122.41971679 139.47353444 127.0148169 144.15625 131.7734375 C145.69778327 133.32760629 147.23945399 134.88163874 148.78125 136.43554688 C151.17708014 138.85624126 153.57126195 141.2785234 155.96289062 143.70336914 C158.29375277 146.06448675 160.63084055 148.41930064 162.96875 150.7734375 C163.67826813 151.49641525 164.38778625 152.21939301 165.11880493 152.96427917 C168.07543785 155.93572374 170.82661376 158.64095099 174.42724609 160.81176758 C175.66595459 161.68418091 175.66595459 161.68418091 176.9296875 162.57421875 C176.9296875 163.89421875 176.9296875 165.21421875 176.9296875 166.57421875 C177.9196875 166.57421875 178.9096875 166.57421875 179.9296875 166.57421875 C180.2596875 167.56421875 180.5896875 168.55421875 180.9296875 169.57421875 C182.1671875 170.31671875 182.1671875 170.31671875 183.4296875 171.07421875 C185.9296875 172.57421875 185.9296875 172.57421875 186.9296875 175.57421875 C188.5550654 176.76273156 188.5550654 176.76273156 190.6171875 177.88671875 C195.14348447 180.76708955 198.57350343 184.15564566 202.2421875 188.01171875 C210.6571701 196.77895644 220.99116313 206.10495656 231.9296875 211.57421875 C231.9296875 213.22421875 231.9296875 214.87421875 231.9296875 216.57421875 C226.20136132 219.01017257 221.68464589 220.01056335 215.49194336 219.9465332 C214.28739754 219.9520092 214.28739754 219.9520092 213.05851746 219.95759583 C210.42030211 219.96565548 207.7827109 219.95211139 205.14453125 219.9375 C203.28292339 219.93698008 201.42131497 219.93750286 199.55970764 219.93901062 C195.65520025 219.93892105 191.75089991 219.92853671 187.84643555 219.91040039 C182.91120063 219.88794783 177.97627102 219.88731363 173.04099941 219.89365292 C109.59941218 219.95537924 109.59941218 219.95537924 97.85009766 208.54785156 C96.19009752 206.84184583 94.65567336 205.10496822 93.12890625 203.28125 C87.73429112 197.07608213 81.8437578 191.33960475 76.02368164 185.5378418 C73.9970577 183.51657607 71.97583203 181.49002301 69.95507812 179.46289062 C61.45873574 170.91476961 61.45873574 170.91476961 52.41870117 162.95263672 C50.70972411 161.37059303 49.48850696 159.68469341 48.1796875 157.76171875 C46.03077832 154.71743075 45.17628871 153.96561927 41.9296875 152.57421875 C41.5996875 151.58421875 41.2696875 150.59421875 40.9296875 149.57421875 C39.26427811 148.57212626 37.59741188 147.57245378 35.9296875 146.57421875 C34.39978479 144.95399978 32.92412977 143.28162999 31.4921875 141.57421875 C26.9529472 136.41100433 22.05550785 132.30170395 16.48852539 128.27929688 C12.11149766 125.04094354 12.11149766 125.04094354 11.02734375 122.2578125 C10.99511719 121.70222656 10.96289062 121.14664063 10.9296875 120.57421875 C10.35863281 120.50589844 9.78757812 120.43757812 9.19921875 120.3671875 C6.05075554 119.26712204 4.7530204 117.42468005 2.6171875 114.88671875 C-0.14074881 111.68586883 -2.81852258 108.81966342 -6.1328125 106.19921875 C-7.1021875 105.33296875 -8.0715625 104.46671875 -9.0703125 103.57421875 C-9.0703125 102.25421875 -9.0703125 100.93421875 -9.0703125 99.57421875 C-9.96363281 99.32800781 -10.85695313 99.08179688 -11.77734375 98.828125 C-15.28159096 97.49376752 -17.07609402 96.09327117 -19.7578125 93.51171875 C-23.24636774 90.24250381 -26.77937616 87.1301205 -30.5078125 84.13671875 C-35.27239228 80.28350726 -39.78707874 76.21673823 -44.29296875 72.06640625 C-47.97234004 68.76480444 -51.79734838 65.66545079 -55.66015625 62.58203125 C-60.16372428 58.83027441 -60.16372428 58.83027441 -62.0703125 56.57421875 C-62.0703125 55.25421875 -62.0703125 53.93421875 -62.0703125 52.57421875 C-63.0603125 52.57421875 -64.0503125 52.57421875 -65.0703125 52.57421875 C-65.0703125 51.58421875 -65.0703125 50.59421875 -65.0703125 49.57421875 C-66.35615234 49.24357422 -66.35615234 49.24357422 -67.66796875 48.90625 C-71.73405039 47.3143627 -74.29920222 45.1505657 -77.5078125 42.26171875 C-78.64411076 41.26755895 -79.78211643 40.27534707 -80.921875 39.28515625 C-81.46231445 38.81432617 -82.00275391 38.34349609 -82.55957031 37.85839844 C-85.26466206 35.55898302 -88.1296686 33.55744371 -91.0703125 31.57421875 C-90.7755127 29.67045593 -90.7755127 29.67045593 -90.0703125 27.57421875 C-83.58528427 24.53279452 -76.51615694 23.0032654 -69.6015625 21.2109375 C-67.14837715 20.56468215 -64.69525415 19.91819012 -62.2421875 19.27148438 C-58.4168509 18.26799323 -54.5908823 17.2670736 -50.76367188 16.27075195 C-27.78446041 10.88487047 -27.78446041 10.88487047 -6.34619141 1.37451172 C-3.0703125 -0.42578125 -3.0703125 -0.42578125 0 0 Z " fill="#F5F5F5" transform="translate(693.0703125,534.42578125)"/>
<path d="M0 0 C0.72108184 16.00571545 1.2697413 31.97736681 1 48 C0.99274902 48.73492676 0.98549805 49.46985352 0.97802734 50.22705078 C0.17420597 109.39647856 -26.47917942 172.41019132 -62 219 C-62.41032471 219.56203125 -62.82064941 220.1240625 -63.2434082 220.703125 C-66.42841205 224.86611453 -66.42841205 224.86611453 -69.16796875 225.5078125 C-71.1875 225.125 -71.1875 225.125 -75 224 C-76.25 222.0625 -76.25 222.0625 -77 220 C-77.99 219.5978125 -77.99 219.5978125 -79 219.1875 C-81 218 -81 218 -82.25 214.375 C-82.4975 213.26125 -82.745 212.1475 -83 211 C-84.32 211 -85.64 211 -87 211 C-88.34375 209.28515625 -88.34375 209.28515625 -89.5 207.0625 C-90.58753938 204.8468832 -90.58753938 204.8468832 -92 203 C-93.32716082 202.6428823 -94.66060201 202.30806154 -96 202 C-96.92173934 200.28819837 -97.83936822 198.57378605 -98.71875 196.83984375 C-100.68958371 194.00977461 -103.35572531 192.76126923 -106.390625 191.23828125 C-106.92171875 190.82964844 -107.4528125 190.42101562 -108 190 C-108 188.68 -108 187.36 -108 186 C-109.32 186 -110.64 186 -112 186 C-113.78125 184.1015625 -113.78125 184.1015625 -115.5 181.625 C-117.80884287 178.19862918 -117.80884287 178.19862918 -121.15625 175.9609375 C-121.7646875 175.64382813 -122.373125 175.32671875 -123 175 C-123.103125 174.36835937 -123.20625 173.73671875 -123.3125 173.0859375 C-123.8647904 170.61184581 -123.8647904 170.61184581 -127.125 169.2890625 C-129.06532183 168.43115161 -131.01838198 167.61754589 -132.984375 166.8203125 C-134.875 165.9765625 -134.875 165.9765625 -138 164 C-139.77697163 158.88611981 -138.54263594 155.62124745 -136.484375 150.86328125 C-134.81449771 147.64217584 -132.89254074 144.7030795 -130.875 141.6875 C-110.12911552 110.52967726 -103.68433508 73.22380699 -98.47729492 36.86547852 C-98 34 -98 34 -97 31 C-94.40819094 29.86930503 -91.91371261 28.94078098 -89.234375 28.06640625 C-88.42551346 27.79226395 -87.61665192 27.51812164 -86.78327942 27.235672 C-84.10928099 26.33295798 -81.42985405 25.44766382 -78.75 24.5625 C-76.89806142 23.94114457 -75.04642018 23.31890228 -73.19506836 22.69580078 C-59.15434877 17.98531888 -45.07066712 13.39878717 -30.95800781 8.90844727 C-24.18848294 6.74667495 -17.48802761 4.54233442 -10.94091797 1.75927734 C-7.31062337 0.33912436 -3.86076748 0 0 0 Z " fill="#F4F4F4" transform="translate(893,384)"/>
<path d="M0 0 C2.46693615 2.18787097 4.84808403 4.43908049 7.21484375 6.734375 C7.82714844 7.27320313 8.43945312 7.81203125 9.0703125 8.3671875 C23.43275492 21.44785588 29.6936404 40.87145349 31.21484375 59.734375 C32.1589597 80.06237144 27.0742008 98.05494708 13.96484375 113.859375 C11.79931487 116.12333701 9.82660112 118.02668749 7.21484375 119.734375 C8.25005129 128.5336391 15.52392499 134.51473912 21.21484375 140.734375 C32.21484375 153.08789062 32.21484375 153.08789062 32.21484375 155.734375 C33.20484375 155.734375 34.19484375 155.734375 35.21484375 155.734375 C36.83984375 158.484375 36.83984375 158.484375 38.21484375 161.734375 C37.0526809 164.96765489 35.03404377 167.30663476 32.77734375 169.859375 C32.18050781 170.54257812 31.58367187 171.22578125 30.96875 171.9296875 C28.83159541 174.12871962 27.18165864 175.65060764 24.05078125 175.921875 C13.16752041 175.09267417 7.28130935 169.24245285 0.3984375 161.23828125 C-2.17321706 158.28938935 -4.9406607 155.60959745 -7.7578125 152.8984375 C-10.17108427 150.32242101 -12.14151737 147.52126792 -14.22265625 144.671875 C-16.98143085 141.08723689 -16.98143085 141.08723689 -20.86328125 139.1171875 C-23.35479426 139.3294275 -25.41131636 139.9371366 -27.78515625 140.734375 C-28.92984375 141.05277344 -30.07453125 141.37117187 -31.25390625 141.69921875 C-33.66188673 142.36950743 -36.0625069 143.06707913 -38.453125 143.796875 C-60.01246681 149.86280939 -84.00158829 144.4035983 -103.47265625 134.484375 C-114.34087526 128.37595994 -123.84382645 120.14636969 -130.78515625 109.734375 C-131.04275904 107.03984979 -130.87415678 104.44889125 -130.78515625 101.734375 C-132.10515625 101.734375 -133.42515625 101.734375 -134.78515625 101.734375 C-135.75364873 99.27964249 -136.70991222 96.82117 -137.66015625 94.359375 C-137.92957031 93.68003906 -138.19898438 93.00070312 -138.4765625 92.30078125 C-141.98638534 83.1409997 -143.15379835 74.32633411 -143.09765625 64.546875 C-143.0934668 63.54164795 -143.08927734 62.5364209 -143.08496094 61.50073242 C-142.96077705 53.25505471 -141.9853109 45.70993562 -139.78515625 37.734375 C-139.50671875 36.68121094 -139.22828125 35.62804687 -138.94140625 34.54296875 C-133.13364382 14.94177054 -118.25598968 1.31981951 -100.96484375 -8.45703125 C-69.10202743 -25.74075433 -28.32693275 -23.0429467 0 0 Z M-102.78515625 24.734375 C-103.2646875 25.27191406 -103.74421875 25.80945313 -104.23828125 26.36328125 C-115.05225958 39.44382574 -116.88891012 57.3677747 -115.78515625 73.734375 C-113.81384491 87.48735176 -108.5184013 96.96715702 -98.78515625 106.734375 C-98.24246094 107.30027344 -97.69976562 107.86617187 -97.140625 108.44921875 C-86.03589768 119.04790787 -70.36223428 122.88037137 -55.47265625 123.171875 C-54.36132324 123.20559204 -54.36132324 123.20559204 -53.22753906 123.23999023 C-47.47860418 123.21488853 -43.76672887 121.57696729 -38.78515625 118.734375 C-39.21639235 112.69706955 -41.981976 109.19921821 -46.38110352 105.33105469 C-48.05334035 103.99091237 -49.75156353 102.69856326 -51.47265625 101.421875 C-52.05337891 100.98037109 -52.63410156 100.53886719 -53.23242188 100.08398438 C-56.37764236 97.70363957 -56.37764236 97.70363957 -59.78515625 95.734375 C-59.78515625 93.424375 -59.78515625 91.114375 -59.78515625 88.734375 C-50.90455037 86.73172451 -42.2589358 86.43026143 -34.203125 91.04296875 C-27.87332852 95.47075854 -22.49626589 100.62499081 -17.78515625 106.734375 C-9.40944789 103.86270356 -5.60554556 98.41713593 -1.78515625 90.734375 C4.06961229 75.98628716 5.94827358 58.85349066 0.21484375 43.734375 C-6.06985245 29.61509816 -15.81153841 15.83339295 -30.70458984 9.97998047 C-34.99534516 8.5497287 -39.34078976 7.5779816 -43.78515625 6.734375 C-44.56890625 6.58484375 -45.35265625 6.4353125 -46.16015625 6.28125 C-48.02226421 5.99592701 -49.90563025 5.86180049 -51.78515625 5.734375 C-52.49027344 5.6828125 -53.19539063 5.63125 -53.921875 5.578125 C-71.97144463 4.86210901 -90.68495857 10.9535943 -102.78515625 24.734375 Z " fill="#FAFAFA" transform="translate(264.78515625,820.265625)"/>
<path d="M0 0 C5.91769956 11.76404184 11.7035886 23.587222 17.43304443 35.44387817 C21.32502349 43.49395363 25.23774914 51.52244432 29.34960938 59.46313477 C39.21586317 78.60449813 46.98444823 98.80772599 54.89453125 118.81640625 C55.36790672 120.01108772 55.36790672 120.01108772 55.85084534 121.22990417 C57.36070641 125.04227223 58.86183554 128.85757242 60.3449707 132.68041992 C62.80045281 138.9476279 65.2731941 144.73429839 69.11083984 150.30761719 C70.65102331 153.23912509 70.33711456 155.76370022 70 159 C67.56274876 159.17124977 65.12530903 159.33703896 62.6875 159.5 C61.68106445 159.57154297 61.68106445 159.57154297 60.65429688 159.64453125 C54.76648009 160.0315239 48.89897228 160.04935805 43 160 C41.36424184 155.85833245 39.74337787 151.71098653 38.125 147.5625 C37.66480469 146.39783203 37.20460938 145.23316406 36.73046875 144.03320312 C34.27655393 137.72059616 32.23976253 131.66194235 31 125 C30.33210449 125.03029297 29.66420898 125.06058594 28.97607422 125.09179688 C4.3175218 126.16337027 -20.32303369 126.10452253 -45 126 C-45.10957031 126.68932617 -45.21914063 127.37865234 -45.33203125 128.08886719 C-46.10531259 131.45897197 -47.31975205 134.40197015 -48.6875 137.578125 C-49.08134888 138.49618927 -49.08134888 138.49618927 -49.4831543 139.43280029 C-50.03563209 140.71790632 -50.59044207 142.00201198 -51.14746094 143.28515625 C-52.00236101 145.25544142 -52.8493871 147.22897233 -53.6953125 149.203125 C-57.85236383 158.85236383 -57.85236383 158.85236383 -59 160 C-60.92667507 160.08748207 -62.85651861 160.10697334 -64.78515625 160.09765625 C-65.95498047 160.09443359 -67.12480469 160.09121094 -68.33007812 160.08789062 C-69.56177734 160.07951172 -70.79347656 160.07113281 -72.0625 160.0625 C-73.91584961 160.05573242 -73.91584961 160.05573242 -75.80664062 160.04882812 C-78.87114117 160.03699608 -81.93554721 160.02051173 -85 160 C-84.34059463 155.94768848 -83.07048872 152.45954705 -81.48046875 148.6796875 C-81.22605515 148.07223694 -80.97164154 147.46478638 -80.70951843 146.83892822 C-79.8739235 144.84877004 -79.03106609 142.86179126 -78.1875 140.875 C-77.59839506 139.47903555 -77.00936612 138.08303903 -76.42041016 136.68701172 C-70.3750368 122.39632508 -64.06321554 108.2246814 -57.68310547 94.08056641 C-51.23457934 79.76990282 -45.2415763 65.30658841 -39.375 50.75 C-38.63025569 48.90497733 -37.88538385 47.06000613 -37.14038086 45.21508789 C-36.41649995 43.42203936 -35.69262292 41.62898926 -34.96875 39.8359375 C-34.61933853 38.97054855 -34.26992706 38.10515961 -33.90992737 37.21354675 C-32.42707528 33.54001771 -30.94537687 29.86608022 -29.47265625 26.18847656 C-28.28889015 23.24399012 -27.08659899 20.30811357 -25.875 17.375 C-25.56997559 16.6025293 -25.26495117 15.83005859 -24.95068359 15.03417969 C-22.68387564 9.63090013 -19.5591897 4.7601199 -15 1 C-10.04755566 -0.38558692 -5.09664757 -0.0679553 0 0 Z M-9 42 C-14.43881696 51.74617527 -19.17469898 61.59991523 -23.36523438 71.94384766 C-24.25402002 74.13491028 -25.15735392 76.31955858 -26.0625 78.50390625 C-29.50965783 86.89265042 -32.52499595 95.26547192 -35 104 C-22.83578133 104.87085719 -10.69035632 105.28529216 1.5 105.5625 C3.30599632 105.60584002 5.11198598 105.64945829 6.91796875 105.69335938 C11.27857608 105.79876813 15.63925502 105.90045569 20 106 C20.84347182 97.52779417 18.57224264 91.58937996 15 84 C14.07756431 81.90185964 13.15700993 79.80289122 12.23828125 77.703125 C7.72192149 67.67205227 3.21552619 57.71723598 -2.625 48.375 C-3.03838623 47.71274414 -3.45177246 47.05048828 -3.87768555 46.36816406 C-4.85482515 44.86866457 -5.91856609 43.42611404 -7 42 C-7.66 42 -8.32 42 -9 42 Z " fill="#FAFAFA" transform="translate(407,805)"/>
<path d="M0 0 C11.87427718 9.47763408 21.22268858 22.03744602 25 37 C25.22331562 40.29748422 25.18966644 43.57203701 25.125 46.875 C25.11597656 47.75414062 25.10695313 48.63328125 25.09765625 49.5390625 C25.07424577 51.6928271 25.0383801 53.84645014 25 56 C20.07511477 56.93438495 15.23736269 57.31397953 10.2421875 57.5546875 C9.37834442 57.59673309 8.51450134 57.63877869 7.6244812 57.68209839 C-2.7571199 58.13917742 -13.13939724 58.15019915 -23.52929688 58.13037109 C-26.8919722 58.12497275 -30.25451598 58.13037409 -33.6171875 58.13671875 C-62.55946068 58.14684644 -62.55946068 58.14684644 -69 56 C-67.08548354 63.21122978 -67.08548354 63.21122978 -63.8125 69.875 C-62 73 -62 73 -62 77 C-60.7934375 77.37125 -60.7934375 77.37125 -59.5625 77.75 C-56.81943387 78.71247934 -54.36044947 79.75737041 -51.75 81 C-39.83480565 86.35783907 -27.27226292 86.25417361 -15 82 C-10.83967407 79.45678706 -7.66757221 76.07981632 -5 72 C0.47361889 72.5439085 4.58317001 74.55393801 9.375 77.0625 C10.11105469 77.43955078 10.84710937 77.81660156 11.60546875 78.20507812 C13.40739646 79.12944364 15.20423099 80.06372614 17 81 C12.70641463 93.08487201 1.02197378 100.63194937 -10 106 C-25.0973446 112.6926373 -42.69452581 111.31073566 -58 106 C-73.84271181 99.30645426 -84.56401268 86.18342811 -91.0703125 70.5234375 C-96.70976302 55.21635752 -95.14571007 37.51593403 -88.5390625 22.73046875 C-80.62814145 7.73184433 -67.74699216 -1.55594938 -51.8515625 -7.09765625 C-35.09513516 -11.63497599 -14.39692742 -10.46566311 0 0 Z M-62 23 C-67.769687 30.21364177 -67.769687 30.21364177 -69 39 C-67.92120693 40.30362595 -67.92120693 40.30362595 -65.33616638 40.12025452 C-64.14813919 40.11803391 -62.960112 40.11581329 -61.73608398 40.11352539 C-61.08244873 40.11367142 -60.42881348 40.11381744 -59.75537109 40.1139679 C-57.58557872 40.11326883 -55.41587121 40.10547678 -53.24609375 40.09765625 C-51.74536689 40.09579205 -50.24463943 40.09436816 -48.74391174 40.09336853 C-44.78681774 40.08954352 -40.82976022 40.0797134 -36.87268066 40.06866455 C-32.83765151 40.05845006 -28.80261647 40.05387083 -24.76757812 40.04882812 C-16.84503531 40.03809111 -8.92252219 40.0210149 -1 40 C-1.12704203 38.58398307 -1.26289979 37.16875571 -1.40234375 35.75390625 C-1.47702881 34.9657251 -1.55171387 34.17754395 -1.62866211 33.36547852 C-2.8522448 25.57107176 -7.99908253 19.79631341 -14 15 C-28.45535486 6.09967535 -50.48945358 11.62925779 -62 23 Z " fill="#F8F8F8" transform="translate(966,857)"/>
<path d="M0 0 C9.30825678 6.72356842 15.69551093 15.5240328 19.3125 26.375 C19.40360421 29.0067336 19.43854036 31.61141182 19.42602539 34.24291992 C19.42617142 35.04315079 19.42631744 35.84338165 19.4264679 36.66786194 C19.42577105 39.31375842 19.41798929 41.95958456 19.41015625 44.60546875 C19.40829126 46.43964093 19.40686774 48.2738136 19.40586853 50.10798645 C19.40204972 54.93636449 19.39222484 59.76471246 19.38116455 64.59307861 C19.37093677 69.51973056 19.36636798 74.44638737 19.36132812 79.37304688 C19.35060203 89.04037992 19.33301035 98.70768276 19.3125 108.375 C11.7225 108.375 4.1325 108.375 -3.6875 108.375 C-4.36076979 103.66211146 -4.81411883 99.65893902 -4.8293457 94.98754883 C-4.83989738 93.15447929 -4.83989738 93.15447929 -4.85066223 91.28437805 C-4.85482651 89.98010361 -4.85899078 88.67582916 -4.86328125 87.33203125 C-4.87372797 85.95830025 -4.88515424 84.58457639 -4.89750671 83.21086121 C-4.94954809 77.41135852 -4.99786147 71.61198692 -5.01342773 65.81225586 C-5.02360729 62.25070463 -5.05317428 58.6897409 -5.09474754 55.12842369 C-5.11276399 53.13914438 -5.11043177 51.14971335 -5.10749817 49.16035461 C-5.22971861 39.98650678 -6.33826363 30.53647147 -11.875 22.875 C-18.54220245 16.94859782 -26.67509608 14.99619231 -35.48828125 15.1640625 C-45.12351342 16.08822331 -53.2604877 20.68574887 -60.0625 27.4375 C-66.75118825 36.14198294 -66.14836388 48.99243842 -66.19921875 59.42578125 C-66.21611666 60.81969223 -66.23427349 62.21358845 -66.25361633 63.60746765 C-66.30056922 67.22894673 -66.3307286 70.85036602 -66.35705566 74.4720459 C-66.38714183 78.18656227 -66.4335735 81.9008733 -66.47851562 85.61523438 C-66.56392375 92.86838642 -66.63154206 100.12155449 -66.6875 107.375 C-72.6875 108.375 -72.6875 108.375 -90.6875 107.375 C-90.6875 70.415 -90.6875 33.455 -90.6875 -4.625 C-82.8125 -5.75 -82.8125 -5.75 -79.28515625 -5.72265625 C-78.54072266 -5.71943359 -77.79628906 -5.71621094 -77.02929688 -5.71289062 C-76.27712891 -5.70451172 -75.52496094 -5.69613281 -74.75 -5.6875 C-73.97076172 -5.68298828 -73.19152344 -5.67847656 -72.38867188 -5.67382812 C-70.48824732 -5.66216908 -68.58786294 -5.64423877 -66.6875 -5.625 C-66.6875 -1.335 -66.6875 2.955 -66.6875 7.375 C-65.89988281 6.85550781 -65.11226562 6.33601562 -64.30078125 5.80078125 C-44.629363 -6.79358239 -21.27733378 -12.82469433 0 0 Z " fill="#F9F9F9" transform="translate(832.6875,856.625)"/>
<path d="M0 0 C0.804375 0.556875 0.804375 0.556875 1.625 1.125 C1.625 5.125 1.625 5.125 0.45092773 6.73730469 C-0.09104248 7.25196289 -0.6330127 7.76662109 -1.19140625 8.296875 C-1.78711426 8.87445557 -2.38282227 9.45203613 -2.99658203 10.04711914 C-3.95733643 10.95192017 -3.95733643 10.95192017 -4.9375 11.875 C-6.24001848 13.13753313 -7.54082114 14.401839 -8.83984375 15.66796875 C-9.46101074 16.27044434 -10.08217773 16.87291992 -10.72216797 17.49365234 C-13.14046513 19.88051521 -15.3443527 22.41370306 -17.5390625 25.00390625 C-20.08214508 27.94197825 -22.73080309 30.77802354 -25.375 33.625 C-29.20705861 37.75743934 -32.98966444 41.9192261 -36.6796875 46.1796875 C-41.8573283 52.12085136 -47.19153844 57.92599741 -52.5 63.75 C-55.90986474 67.49612258 -59.27478972 71.27440512 -62.59765625 75.09765625 C-65.42932947 78.32763076 -68.31702507 81.50690656 -71.1953125 84.6953125 C-73.06645094 86.7810618 -74.91424831 88.88317628 -76.75 91 C-80.20160734 94.96533494 -83.75346582 98.83695213 -87.32763672 102.69165039 C-89.95221557 105.53111495 -92.44622632 108.43072489 -94.875 111.4375 C-102.71744915 120.352737 -113.2749568 123.91156284 -124.375 127.125 C-125.56125977 127.47788086 -125.56125977 127.47788086 -126.77148438 127.83789062 C-129.24018704 128.57057528 -131.71253753 129.28876691 -134.1875 130 C-134.97068604 130.22768066 -135.75387207 130.45536133 -136.56079102 130.68994141 C-142.13965197 132.24267401 -142.13965197 132.24267401 -144.375 131.125 C-142.79270464 121.34490774 -139.98235378 113.07007227 -135.47314453 104.26953125 C-134.28497067 101.9491846 -133.12590116 99.61527311 -131.96484375 97.28125 C-125.73442435 84.92932643 -118.63936751 73.2805218 -111.06640625 61.71142578 C-108.95585911 58.48406776 -106.86983968 55.24127499 -104.78417969 51.99780273 C-103.43130425 49.8998145 -102.06853004 47.80859818 -100.703125 45.71875 C-99.30101648 43.56959806 -97.94231271 41.41278907 -96.609375 39.21875 C-96.11953125 38.4246875 -95.6296875 37.630625 -95.125 36.8125 C-94.74859375 36.17699219 -94.3721875 35.54148437 -93.984375 34.88671875 C-89.09635086 29.53599329 -82.44685177 28.17445456 -75.6875 26.5625 C-61.7656126 22.99251258 -48.65028409 17.56880874 -35.375 12.125 C-32.22838971 10.84121483 -29.08067048 9.56015107 -25.93312073 8.27867126 C-22.97967659 7.07553038 -20.02811172 5.86813363 -17.0793457 4.65356445 C-16.02448975 4.22003662 -14.96963379 3.78650879 -13.8828125 3.33984375 C-12.96129395 2.95948975 -12.03977539 2.57913574 -11.09033203 2.18725586 C-2.83211829 -1.043412 -2.83211829 -1.043412 0 0 Z " fill="#F9F9F9" transform="translate(632.375,456.875)"/>
<path d="M0 0 C8.25 0 16.5 0 25 0 C25.02505615 3.37371826 25.0501123 6.74743652 25.07592773 10.22338867 C25.1599005 21.44707637 25.24847536 32.67072473 25.33933926 43.89435863 C25.39424852 50.69038076 25.4476531 57.48640804 25.49731445 64.2824707 C25.54536313 70.85722913 25.59787068 77.4319437 25.65294075 84.00664711 C25.67311382 86.49846589 25.69186343 88.99029667 25.70907402 91.48213768 C25.7966222 104.02471407 25.95190942 116.54069894 26.65183163 129.06619549 C27.13055584 137.64853161 27.11138086 146.21961359 27.0625 154.8125 C27.05745804 156.40299333 27.05290006 157.99348827 27.04882812 159.58398438 C27.03894393 163.38939864 27.01933868 167.19457664 27 171 C18.09 171 9.18 171 0 171 C0 114.57 0 58.14 0 0 Z " fill="#F9F9F9" transform="translate(634,794)"/>
<path d="M0 0 C1.21236328 0.01353516 1.21236328 0.01353516 2.44921875 0.02734375 C3.37154297 0.04474609 3.37154297 0.04474609 4.3125 0.0625 C6.47158873 6.07004078 6.39260645 11.17857144 5.9375 17.5 C5.85242188 18.88348633 5.85242188 18.88348633 5.765625 20.29492188 C5.62530733 22.55169779 5.47402895 24.80715997 5.3125 27.0625 C4.42949219 27.330625 3.54648437 27.59875 2.63671875 27.875 C-12.60695847 32.85252725 -23.90690498 41.65742896 -31.77734375 55.82421875 C-33.85351579 60.92999805 -33.86244041 66.37832098 -33.96875 71.8203125 C-33.98684219 72.55782745 -34.00493439 73.29534241 -34.02357483 74.0552063 C-34.06188347 75.62453164 -34.09842661 77.19390093 -34.1333313 78.76330566 C-34.22395608 82.81900728 -34.32825652 86.87434487 -34.43359375 90.9296875 C-34.464282 92.1196936 -34.464282 92.1196936 -34.49559021 93.33374023 C-34.73333983 102.25181736 -35.16167646 111.15706303 -35.6875 120.0625 C-39.31248334 120.09143932 -42.93743713 120.10927792 -46.5625 120.125 C-48.11130859 120.13756836 -48.11130859 120.13756836 -49.69140625 120.15039062 C-50.67753906 120.15361328 -51.66367187 120.15683594 -52.6796875 120.16015625 C-53.59089355 120.16539307 -54.50209961 120.17062988 -55.44091797 120.17602539 C-57.6875 120.0625 -57.6875 120.0625 -59.6875 119.0625 C-59.73426324 105.21507358 -59.76937697 91.36765944 -59.79112434 77.52017021 C-59.80156192 71.09024187 -59.81572081 64.66036657 -59.83837891 58.23046875 C-59.86010797 52.02538659 -59.87206882 45.82035546 -59.87725449 39.61523819 C-59.88095011 37.24776532 -59.88816667 34.88029524 -59.89896011 32.51284409 C-59.91347566 29.19714062 -59.91547789 25.88164809 -59.91455078 22.56591797 C-59.92174133 21.5869606 -59.92893188 20.60800323 -59.93634033 19.59938049 C-59.92154659 14.71053763 -59.7261974 10.608509 -57.6875 6.0625 C-54.3297838 3.30012355 -50.30455063 3.79615767 -46.125 3.8125 C-45.45275391 3.80476562 -44.78050781 3.79703125 -44.08789062 3.7890625 C-40.40327164 3.80369852 -38.83134852 3.96660098 -35.6875 6.0625 C-35.39453125 9.1015625 -35.39453125 9.1015625 -35.5 12.6875 C-35.52707031 13.87601563 -35.55414062 15.06453125 -35.58203125 16.2890625 C-35.61683594 17.20429687 -35.65164063 18.11953125 -35.6875 19.0625 C-27.4913766 14.60321098 -19.71358447 9.87452743 -12.22021484 4.30126953 C-8.01766668 1.19268681 -5.20886268 -0.07549076 0 0 Z " fill="#FAFAFA" transform="translate(607.6875,844.9375)"/>
<path d="M0 0 C1.73109162 0.49999757 3.46288069 0.9975859 5.1953125 1.49291992 C8.7788431 2.52103856 12.35836308 3.56163446 15.93505859 4.61328125 C23.71731467 6.89841974 31.52358607 9.09830501 39.33007812 11.29891968 C41.79128574 11.99400871 44.25119872 12.69353192 46.7109375 13.39379883 C56.89179236 16.2831988 67.092275 19.0012744 77.4140625 21.35083008 C78.28160156 21.55474365 79.14914062 21.75865723 80.04296875 21.96875 C80.77926514 22.13439453 81.51556152 22.30003906 82.27416992 22.47070312 C84.71833178 23.33021435 86.38488775 24.46489511 88.3125 26.1875 C88.3125 26.8475 88.3125 27.5075 88.3125 28.1875 C74.61321366 32.63018987 60.825035 36.6283203 46.9375 40.4375 C44.04889591 41.23065852 41.16061404 42.02490482 38.27328491 42.82269287 C36.49883506 43.31295161 34.72366537 43.80061516 32.94766235 44.28521729 C28.95703732 45.38740763 25.13789473 46.58635165 21.3125 48.1875 C10.88363591 50.02561148 3.09727838 43.75453559 -5.16967773 38.26660156 C-13.23576035 33.02644529 -21.76271922 28.54284419 -30.20629883 23.94799805 C-38.18189894 19.6039232 -46.12518455 15.22904363 -53.6875 10.1875 C-53.875 7.0625 -53.875 7.0625 -53.6875 4.1875 C-51.41853368 2.87167937 -49.14746813 1.55974764 -46.875 0.25 C-46.23240234 -0.12318359 -45.58980469 -0.49636719 -44.92773438 -0.88085938 C-30.8571322 -8.97327824 -14.63375029 -4.39501992 0 0 Z " fill="#FAFAFA" transform="translate(477.6875,326.8125)"/>
<path d="M0 0 C0.82718186 -0.00467997 1.65436373 -0.00935994 2.5066117 -0.01418173 C5.27034988 -0.02612026 8.03359116 -0.01667908 10.79733276 -0.00723267 C12.78185312 -0.01129881 14.76637121 -0.01664093 16.75088501 -0.02316284 C22.1349806 -0.03683532 27.51890367 -0.03153849 32.90300226 -0.02202559 C38.53590517 -0.0144308 44.16879329 -0.0214739 49.80169678 -0.02618408 C59.25892795 -0.03164125 68.71608883 -0.02445005 78.17330933 -0.01016235 C89.11267318 0.00617349 100.05186937 0.00086868 110.99122918 -0.01564157 C120.38073384 -0.02924625 129.77018799 -0.03118136 139.15969932 -0.02332556 C144.76902191 -0.01864466 150.37826562 -0.01803586 155.98758316 -0.02793503 C161.25877757 -0.0365879 166.52975526 -0.03061349 171.80092621 -0.01325226 C173.73754135 -0.00927884 175.67417467 -0.01043602 177.61078262 -0.01704025 C180.24988423 -0.02521183 182.88828694 -0.0149876 185.52734375 0 C186.68268496 -0.01003825 186.68268496 -0.01003825 187.86136639 -0.02027929 C190.99543535 0.01435588 193.29145404 0.20080019 196.09274101 1.66257286 C198.6038225 4.45734933 198.59457608 7.78036175 198.63668823 11.38095093 C198.32418823 14.31845093 198.32418823 14.31845093 197.63668823 16.38095093 C194.48527899 17.95665555 191.10751967 17.52519577 187.64723206 17.52139282 C186.8119228 17.52436394 185.97661355 17.52733507 185.11599189 17.53039622 C182.3008592 17.53910775 179.48576891 17.54059354 176.67062378 17.54208374 C174.65876168 17.54671018 172.64690047 17.55173461 170.63504028 17.55712891 C165.15772528 17.57027176 159.68042255 17.57670155 154.20309424 17.58113956 C150.78349946 17.58406729 147.36390805 17.58817152 143.94431496 17.59264374 C133.25224373 17.6063237 122.5601802 17.61598789 111.86810082 17.61984563 C99.51264187 17.6243276 87.15729347 17.6418799 74.80186814 17.67084622 C65.26042505 17.69244127 55.71901312 17.70254875 46.17754585 17.70388675 C40.47477812 17.70493635 34.77211425 17.71087707 29.06937218 17.72870636 C23.70550466 17.74514937 18.34181948 17.74736089 12.97793579 17.73856735 C11.00787176 17.73779495 9.03779807 17.74216633 7.06775856 17.7520256 C4.38065197 17.76468606 1.69419694 17.75890053 -0.99290466 17.7484436 C-2.16547859 17.76052821 -2.16547859 17.76052821 -3.36174089 17.77285695 C-7.83992289 17.7320299 -10.85409163 17.25797271 -14.36331177 14.38095093 C-14.85159302 11.68173218 -14.85159302 11.68173218 -14.67581177 8.69345093 C-14.63069458 7.69958374 -14.58557739 6.70571655 -14.53909302 5.68173218 C-14.48108521 4.92247437 -14.42307739 4.16321655 -14.36331177 3.38095093 C-9.53225494 0.50217943 -5.50454136 -0.04810516 0 0 Z " fill="#F6F6F6" transform="translate(25.363311767578125,669.6190490722656)"/>
<path d="M0 0 C8.25 0 16.5 0 25 0 C25.02269279 12.50128104 25.04099665 25.00254815 25.05181217 37.50384521 C25.05700598 43.31018852 25.06403918 49.11651686 25.07543945 54.92285156 C25.08639385 60.53794499 25.09230314 66.15302414 25.09487724 71.76812744 C25.09670906 73.89846013 25.10028555 76.02879213 25.10573006 78.15911865 C25.13514984 90.15995602 24.90082846 102.03051464 24 114 C16.08 114 8.16 114 0 114 C-2.25026603 104.99893589 -2.25026603 104.99893589 -2.24291992 100.24707031 C-2.24595123 99.1814386 -2.24898254 98.11580688 -2.25210571 97.0178833 C-2.24496552 95.88276306 -2.23782532 94.74764282 -2.23046875 93.578125 C-2.2304184 92.37613464 -2.23036804 91.17414429 -2.23031616 89.93572998 C-2.22671394 86.04038052 -2.2078278 82.14529533 -2.1875 78.25 C-2.18331119 76.91406379 -2.17955864 75.57812615 -2.17623901 74.2421875 C-2.13587096 58.15872561 -2.01278843 42.07775081 -1.5625 26 C-1.54303314 25.28976685 -1.52356628 24.57953369 -1.50350952 23.84777832 C-1.27387233 15.8346552 -0.72762024 8.0038226 0 0 Z " fill="#F8F8F8" transform="translate(689,851)"/>
<path d="M0 0 C1.2755072 0.00060425 2.5510144 0.0012085 3.86517334 0.00183105 C5.31473896 0.00815683 6.76430356 0.01471844 8.21386719 0.02148438 C9.77915395 0.02532105 11.34444127 0.02893335 12.909729 0.03234863 C38.03228772 0.10331277 63.15476382 0.34813737 88.27646875 0.56061554 C95.57333422 0.6222778 102.87021383 0.6821853 110.16709471 0.741992 C125.11499291 0.86454494 140.06287326 0.98915699 155.01074219 1.11523438 C154.95068628 3.22019402 154.8618886 5.32434872 154.76074219 7.42773438 C154.71433594 8.59949219 154.66792969 9.77125 154.62011719 10.97851562 C154.01074219 14.11523438 154.01074219 14.11523438 152.15136719 15.97070312 C148.20533124 18.08053621 145.09767441 18.24432116 140.68533325 18.25567627 C139.71897817 18.26013295 139.71897817 18.26013295 138.73310077 18.26467967 C136.57058923 18.27336342 134.40813307 18.27487463 132.24560547 18.27636719 C130.6966439 18.28099555 129.14768347 18.28602024 127.59872437 18.29141235 C123.38795722 18.30453563 119.17720601 18.31098104 114.9664216 18.31542301 C112.33629421 18.31835354 109.70617119 18.32245828 107.07604599 18.32692719 C98.8486267 18.34060123 90.62121737 18.35026864 82.3937875 18.35412908 C72.8931598 18.35861133 63.39267586 18.37616732 53.89209187 18.40512967 C46.5501851 18.42673535 39.20831881 18.43683274 31.86638057 18.43817019 C27.48041501 18.43921892 23.09458462 18.44514116 18.7086525 18.46298981 C14.58330586 18.47945152 10.45819627 18.48163532 6.33282852 18.4728508 C4.81911586 18.47207943 3.30539056 18.47643629 1.7917099 18.48630905 C-0.27577018 18.49900265 -2.3424074 18.4931668 -4.40988159 18.48272705 C-6.14484296 18.48492689 -6.14484296 18.48492689 -7.91485405 18.48717117 C-11.35798208 18.07062666 -13.26032231 17.23437039 -15.98925781 15.11523438 C-16.47753906 12.41601562 -16.47753906 12.41601562 -16.30175781 9.42773438 C-16.25664062 8.43386719 -16.21152344 7.44 -16.16503906 6.41601562 C-16.10703125 5.65675781 -16.04902344 4.8975 -15.98925781 4.11523438 C-10.30029421 1.14145795 -6.40144109 -0.01223228 0 0 Z " fill="#F9F9F9" transform="translate(46.9892578125,252.884765625)"/>
<path d="M0 0 C1.23496719 -0.00571014 2.46993439 -0.01142029 3.74232483 -0.01730347 C5.113449 -0.01854884 6.48457328 -0.01967393 7.85569763 -0.02069092 C9.29802579 -0.02531979 10.74035272 -0.03034454 12.18267822 -0.03573608 C16.10453408 -0.04886032 20.02637281 -0.05530574 23.94824719 -0.05974674 C26.40085343 -0.06267901 28.853455 -0.06678423 31.30605888 -0.07125092 C38.98620411 -0.08492938 46.66633865 -0.09459285 54.34649521 -0.09845281 C63.19902182 -0.10292673 72.0513935 -0.12044212 80.90387303 -0.1494534 C87.75329322 -0.17111701 94.60266999 -0.18115967 101.45212406 -0.18249393 C105.53923463 -0.18353913 109.62619964 -0.18938527 113.713274 -0.20731354 C117.56368123 -0.22387407 121.41383476 -0.22591134 125.26426506 -0.21717453 C126.67106178 -0.21640825 128.07787259 -0.22069239 129.4846344 -0.23063278 C137.54054862 -0.28417888 144.52814953 0.22931218 152.08787537 3.14044189 C151.6531365 8.27036055 151.30123032 11.93836233 148.08787537 16.14044189 C144.58988017 18.47243869 143.20764157 18.39339084 139.07290649 18.40113831 C137.18654228 18.41176552 137.18654228 18.41176552 135.2620697 18.42260742 C133.86570704 18.4203135 132.46934472 18.41780378 131.07298279 18.4151001 C129.60445903 18.41944668 128.13593754 18.42462965 126.66741943 18.43058777 C122.67556051 18.44399723 118.68379615 18.44455411 114.69191909 18.44202447 C111.35950116 18.44095572 108.02710244 18.44583584 104.69468862 18.45062989 C96.83118877 18.46173256 88.96773669 18.46215872 81.10423279 18.45611572 C72.99435426 18.4500791 64.88464937 18.46237722 56.77480048 18.48368579 C49.81163527 18.50130819 42.84852529 18.507302 35.8853386 18.50404805 C31.7268272 18.5022355 27.56843955 18.50486813 23.40994835 18.51876259 C19.49716009 18.53134615 15.58464199 18.52939195 11.67185783 18.5163517 C10.23758604 18.51398722 8.80329522 18.51671605 7.36904526 18.52497482 C5.40732021 18.53545416 3.4455181 18.52553238 1.48379517 18.5146637 C-0.16129138 18.51491531 -0.16129138 18.51491531 -1.83961201 18.515172 C-5.38034608 18.08333662 -7.82867421 16.89144601 -10.91212463 15.14044189 C-10.77078965 13.36924386 -10.62389255 11.59848903 -10.47462463 9.82794189 C-10.3934137 8.84180908 -10.31220276 7.85567627 -10.22853088 6.83966064 C-9.91212463 4.14044189 -9.91212463 4.14044189 -8.91212463 1.14044189 C-5.69682379 0.06867495 -3.38120076 0.00935057 0 0 Z " fill="#F6F6F6" transform="translate(50.91212463378906,625.8595581054688)"/>
<path d="M0 0 C6.25620175 0.01038433 12.51240776 0.0148294 18.76861572 0.01983643 C30.9587308 0.03043663 43.14882737 0.04741502 55.33892822 0.06866455 C55.41863936 5.54595873 55.22837058 9.82021355 53.33892822 15.06866455 C47.68054859 20.72704418 32.48861932 18.39398285 24.85845947 18.6038208 C23.35899889 18.64706557 21.85954322 18.6904808 20.36009216 18.73405457 C17.21759971 18.82453771 14.07504825 18.91244788 10.93243408 18.99859619 C7.78257882 19.08515624 4.63286155 19.1752464 1.48321533 19.269104 C-15.10029082 19.76314942 -31.6747884 20.1560713 -48.26654053 20.1506958 C-49.55739059 20.150298 -50.84824066 20.14990021 -52.1782074 20.14949036 C-59.38730626 20.12752348 -66.58328859 20.00025877 -73.78607178 19.69366455 C-74.51566605 19.66336655 -75.24526031 19.63306854 -75.9969635 19.60185242 C-80.39312572 19.34600742 -83.3286264 18.51281301 -87.66107178 17.06866455 C-88.32107178 12.77866455 -88.98107178 8.48866455 -89.66107178 4.06866455 C-70.69293269 -8.57676151 -21.93799012 -0.04035994 0 0 Z " fill="#FAFAFA" transform="translate(161.66107177734375,204.93133544921875)"/>
<path d="M0 0 C1.26166992 0.00483398 1.26166992 0.00483398 2.54882812 0.00976562 C3.84530273 0.02233398 3.84530273 0.02233398 5.16796875 0.03515625 C6.05162109 0.03966797 6.93527344 0.04417969 7.84570312 0.04882812 C10.01565434 0.06055759 12.18557047 0.0784913 14.35546875 0.09765625 C14.75993082 43.97245669 14.75993082 43.97245669 12.68945312 64.71679688 C12.29996251 68.6595352 11.94294574 72.60464666 11.58984375 76.55078125 C11.20156412 80.88340387 10.81263003 85.21590138 10.40893555 89.54711914 C9.64816971 97.72572848 8.95662317 105.90572759 8.35546875 114.09765625 C5.93872651 114.12470933 3.52228935 114.14452063 1.10546875 114.16015625 C0.42355469 114.16853516 -0.25835937 114.17691406 -0.9609375 114.18554688 C-4.44718095 114.20247039 -7.23113244 113.95100595 -10.64453125 113.09765625 C-10.31453125 76.13765625 -9.98453125 39.17765625 -9.64453125 1.09765625 C-6.08160869 0.38507174 -3.50986961 -0.02387666 0 0 Z " fill="#F9F9F9" transform="translate(502.64453125,850.90234375)"/>
<path d="M0 0 C1.8394176 3.71380375 3.12937959 7.63474399 4.4987793 11.54394531 C5.17751135 13.47163096 5.88301391 15.38788107 6.59179688 17.3046875 C9.02574387 24.14411439 10.60804736 29.73501858 10 37 C1.860467 40.47044082 -6.48334723 43.23138516 -14.89624023 45.9465332 C-17.19543975 46.69006762 -19.49127949 47.44340009 -21.78710938 48.19726562 C-23.26803576 48.67767993 -24.74914926 49.15751792 -26.23046875 49.63671875 C-26.9066777 49.85962082 -27.58288666 50.08252289 -28.27958679 50.31217957 C-35.08102779 52.48773784 -41.51202326 53.13948671 -48.625 53.125 C-49.89601563 53.12757813 -51.16703125 53.13015625 -52.4765625 53.1328125 C-55.46408027 53.02020097 -58.10380888 52.69908062 -61 52 C-59.76458071 47.46581716 -58.40048206 44.97010445 -54.9375 41.8125 C-51.58684413 38.61657187 -48.57527078 35.37025278 -45.6875 31.75 C-22.98058359 3.4951459 -22.98058359 3.4951459 -5.5 -0.875 C-3 -1 -3 -1 0 0 Z " fill="#F7F7F7" transform="translate(689,463)"/>
<path d="M0 0 C3.82341282 3.42958489 7.21248785 6.86118076 8.125 12.0625 C7.95746081 17.33998464 7.07579783 20.88611414 3.296875 24.734375 C-0.38422397 27.77780328 -4.00282254 30.0797128 -8.8515625 30.3671875 C-14.6923151 29.36894978 -19.57228946 25.49735496 -23.5625 21.3125 C-26.69265037 16.27704071 -26.88585047 10.76224637 -26 5 C-23.86605436 1.66986337 -20.71507441 0.33370139 -17.1875 -1.3125 C-11.52640361 -2.53352079 -5.06400029 -3.19831597 0 0 Z " fill="#FBFBFB" transform="translate(713,806)"/>
<path d="M0 0 C4.20586931 1.56038648 5.82657027 3.57858803 7.76953125 7.4921875 C8.38671875 10.4296875 8.38671875 10.4296875 8.64453125 13.4921875 C8.79535156 15.008125 8.79535156 15.008125 8.94921875 16.5546875 C8.68063538 20.94544166 6.81945989 23.44225886 3.76953125 26.4921875 C-1.10380641 27.5670696 -6.36963714 28.18194779 -11.16796875 26.5546875 C-15.31558332 23.76139606 -16.85004572 21.26092159 -18.23046875 16.4921875 C-19.07912785 12.12914256 -19.84450803 7.9132703 -19.23046875 3.4921875 C-14.08179223 -2.20241816 -7.05868312 -1.6070557 0 0 Z " fill="#FBFBFB" transform="translate(507.23046875,806.5078125)"/>
</svg>
